<svg xmlns="http://www.w3.org/2000/svg" width="18" height="18" viewBox="0 0 18 18">
    <g fill="#0096FF" fill-rule="nonzero" stroke="#0096FF" stroke-width=".5" transform="translate(1 1)">
        <path d="M8 0C3.589 0 0 3.589 0 8s3.589 8 8 8 8-3.589 8-8-3.589-8-8-8zm0 15.015A7.023 7.023 0 0 1 .985 8 7.023 7.023 0 0 1 8 .985 7.023 7.023 0 0 1 15.015 8 7.023 7.023 0 0 1 8 15.015z"/>
        <circle cx="8.128" cy="4.81" r="1"/>
        <path d="M7.91 6.976a.492.492 0 0 0-.492.493v4.184a.492.492 0 0 0 .985 0V7.47a.492.492 0 0 0-.492-.493z"/>
    </g>
</svg>
