<svg xmlns="http://www.w3.org/2000/svg" width="22" height="17" viewBox="0 0 22 17">
    <g fill="#707A85" fill-rule="nonzero" stroke="#FFF" stroke-width=".8">
        <path d="M19.758 16.27H2.445a1.242 1.242 0 0 1 0-2.485h17.313a1.242 1.242 0 0 1 0 2.485zM8.817 10.443H2.445a1.243 1.243 0 0 1-1.242-1.242V2.242C1.203 1.556 1.759 1 2.445 1h6.372c.686 0 1.242.556 1.242 1.242v6.959c0 .686-.556 1.242-1.242 1.242zm-5.13-2.485h3.887V3.485H3.687v4.473zM19.758 3.862h-6.29a1.243 1.243 0 0 1 0-2.485h6.29a1.242 1.242 0 0 1 0 2.485zM19.758 10.066h-6.29a1.242 1.242 0 1 1 0-2.485h6.29a1.242 1.242 0 0 1 0 2.485z"/>
    </g>
</svg>
