<svg xmlns="http://www.w3.org/2000/svg" width="24" height="25" viewBox="0 0 24 25">
    <path fill="#707A85" fill-rule="nonzero" d="M23.635 22.245L17.72 16.2a9.726 9.726 0 0 0 2.354-6.34c0-5.436-4.502-9.86-10.036-9.86S0 4.424 0 9.86c0 5.438 4.503 9.861 10.037 9.861 2.077 0 4.057-.615 5.75-1.784l5.961 6.091c.25.254.585.395.944.395.34 0 .662-.128.907-.36.52-.491.537-1.306.036-1.818zM10.037 2.572c4.09 0 7.418 3.27 7.418 7.289 0 4.018-3.328 7.288-7.418 7.288s-7.419-3.27-7.419-7.288c0-4.02 3.328-7.289 7.419-7.289z"/>
</svg>
